<?xml version="1.0" encoding="UTF-8"?>
<!DOCTYPE svg PUBLIC "-//W3C//DTD SVG 1.1//EN" "http://www.w3.org/Graphics/SVG/1.1/DTD/svg11.dtd">
<svg xmlns="http://www.w3.org/2000/svg" version="1.1" width="2449px" height="2048px" style="shape-rendering:geometricPrecision; text-rendering:geometricPrecision; image-rendering:optimizeQuality; fill-rule:evenodd; clip-rule:evenodd" xmlns:xlink="http://www.w3.org/1999/xlink">
<g><path style="opacity:0.999" fill="#0b3d91" d="M 1874.5,530.5 C 1842.71,550.57 1810.05,569.403 1776.5,587C 1689.31,631.929 1600.65,673.595 1510.5,712C 1455.19,735.162 1399.86,757.996 1344.5,780.5C 1274.29,694.124 1195.62,616.291 1108.5,547C 1057.99,507.558 1003.66,473.891 945.5,446C 913.445,431.315 880.112,420.648 845.5,414C 813.366,407.853 781.7,409.519 750.5,419C 715.511,431.988 691.011,455.821 677,490.5C 663.063,529.001 658.396,568.668 663,609.5C 669.061,668.541 682.395,725.874 703,781.5C 726.71,846.584 755.544,909.25 789.5,969.5C 751.562,983.126 713.562,996.793 675.5,1010.5C 675.167,1010.5 674.833,1010.5 674.5,1010.5C 674.333,964.832 674.5,919.165 675,873.5C 679.066,856.853 687.566,843.02 700.5,832C 666.5,831.333 632.5,831.333 598.5,832C 613.567,842.396 624.067,856.229 630,873.5C 630.5,924.832 630.667,976.166 630.5,1027.5C 627.557,1027.98 624.89,1028.98 622.5,1030.5C 583.167,964.5 543.833,898.5 504.5,832.5C 455.002,831.335 405.335,831.168 355.5,832C 356.044,832.717 356.711,833.217 357.5,833.5C 368.178,841.68 377.345,851.346 385,862.5C 387.219,866.271 388.885,870.271 390,874.5C 390.167,916.167 390.333,957.833 390.5,999.5C 390.495,1041.71 389.828,1083.71 388.5,1125.5C 338.683,1147.74 289.349,1171.07 240.5,1195.5C 196.238,984.592 222.405,782.926 319,590.5C 421.383,398.119 572.883,259.285 773.5,174C 948.182,104.09 1127.52,89.0899 1311.5,129C 1537.75,183.456 1717.59,305.289 1851,494.5C 1859.09,506.405 1866.92,518.405 1874.5,530.5 Z"/></g>
<g><path style="opacity:1" fill="#f3f5f9" d="M 1112.5,173.5 C 1119.83,173 1123.33,176.333 1123,183.5C 1119.7,188.774 1115.37,189.774 1110,186.5C 1107.46,181.438 1108.29,177.105 1112.5,173.5 Z"/></g>
<g><path style="opacity:0.997" fill="#fb3d21" d="M 1936.5,649.5 C 1934.4,650.412 1932.4,651.579 1930.5,653C 1858.48,716.55 1783.48,776.05 1705.5,831.5C 1682.18,847.808 1658.85,864.141 1635.5,880.5C 1585.44,915.224 1535.11,949.558 1484.5,983.5C 1478.75,973.003 1472.75,962.67 1466.5,952.5C 1518.36,917.299 1569.36,880.966 1619.5,843.5C 1625.14,839.853 1630.47,835.853 1635.5,831.5C 1707.83,779.475 1777.83,724.309 1845.5,666C 1761.46,720.537 1673.13,768.204 1580.5,809C 1542.75,825.524 1504.75,841.357 1466.5,856.5C 1466.67,846.828 1466.5,837.161 1466,827.5C 1458.39,836.8 1448.73,842.466 1437,844.5C 1420.53,841.505 1404.03,838.672 1387.5,836C 1373.04,817.56 1358.7,799.06 1344.5,780.5C 1399.86,757.996 1455.19,735.162 1510.5,712C 1600.65,673.595 1689.31,631.929 1776.5,587C 1810.05,569.403 1842.71,550.57 1874.5,530.5C 1997.34,458.732 2108.51,371.399 2208,268.5C 2232.85,241.764 2256.52,214.097 2279,185.5C 2280.11,183.671 2281.61,182.837 2283.5,183C 2254.1,263.996 2213.93,338.829 2163,407.5C 2114.74,472.789 2060.91,533.622 2001.5,590C 1979.76,609.85 1958.09,629.683 1936.5,649.5 Z"/></g>
<g><path style="opacity:1" fill="#f0f3f8" d="M 1294.5,236.5 C 1295.71,243.977 1296.54,251.643 1297,259.5C 1302.43,260.761 1305.6,264.095 1306.5,269.5C 1314.17,269.821 1321.84,270.321 1329.5,271C 1321.79,271.448 1314.12,272.281 1306.5,273.5C 1305.34,278.335 1302.34,281.002 1297.5,281.5C 1296.5,310.829 1295.5,310.829 1294.5,281.5C 1289.62,280.958 1286.62,278.291 1285.5,273.5C 1252.23,272.823 1252.23,271.489 1285.5,269.5C 1286.04,264.624 1288.71,261.624 1293.5,260.5C 1293.94,252.505 1294.27,244.505 1294.5,236.5 Z"/></g>
<g><path style="opacity:1" fill="#f9fafc" d="M 1056.5,269.5 C 1067.04,268.539 1071.54,273.205 1070,283.5C 1067.12,288.19 1062.95,290.023 1057.5,289C 1051.89,285.723 1050.06,280.89 1052,274.5C 1053.71,272.963 1055.21,271.296 1056.5,269.5 Z"/></g>
<g><path style="opacity:1" fill="#f7f8fb" d="M 1160.5,282.5 C 1170.54,282.032 1174.7,286.699 1173,296.5C 1170.08,302.025 1165.58,303.858 1159.5,302C 1151.31,294.999 1151.64,288.499 1160.5,282.5 Z"/></g>
<g><path style="opacity:1" fill="#f7f8fb" d="M 940.5,346.5 C 946.979,344.784 950.979,347.117 952.5,353.5C 950.091,360.702 945.591,362.369 939,358.5C 936.66,354.052 937.16,350.052 940.5,346.5 Z"/></g>
<g><path style="opacity:1" fill="#f5f7fa" d="M 1084.5,347.5 C 1092.15,347.314 1095.32,350.981 1094,358.5C 1088.83,364.092 1084.17,363.759 1080,357.5C 1079.08,353.017 1080.58,349.683 1084.5,347.5 Z"/></g>
<g><path style="opacity:1" fill="#f4f6fa" d="M 961.5,360.5 C 968.831,360 972.331,363.333 972,370.5C 968.702,375.774 964.369,376.774 959,373.5C 956.458,368.438 957.292,364.105 961.5,360.5 Z"/></g>
<g><path style="opacity:1" fill="#f5f7fa" d="M 983.5,375.5 C 994.132,375.593 996.799,380.093 991.5,389C 982.895,391.734 979.062,388.567 980,379.5C 981.376,378.295 982.542,376.962 983.5,375.5 Z"/></g>
<g><path style="opacity:1" fill="#f6f8fb" d="M 1161.5,390.5 C 1171.53,389.731 1174.53,393.898 1170.5,403C 1161.65,406.672 1157.48,403.839 1158,394.5C 1159.03,392.973 1160.2,391.64 1161.5,390.5 Z"/></g>
<g><path style="opacity:1" fill="#f7f8fb" d="M 949.5,405.5 C 960.818,405.081 963.485,409.581 957.5,419C 953.22,421.477 949.72,420.644 947,416.5C 945.812,412.259 946.645,408.592 949.5,405.5 Z"/></g>
<g><path style="opacity:1" fill="#fdfdfe" d="M 1344.5,780.5 C 1358.7,799.06 1373.04,817.56 1387.5,836C 1404.03,838.672 1420.53,841.505 1437,844.5C 1448.73,842.466 1458.39,836.8 1466,827.5C 1466.5,837.161 1466.67,846.828 1466.5,856.5C 1466.67,875.17 1466.5,893.836 1466,912.5C 1453.69,902.763 1440.19,895.263 1425.5,890C 1439.56,910.642 1453.23,931.475 1466.5,952.5C 1472.75,962.67 1478.75,973.003 1484.5,983.5C 1513.36,1032.56 1538.53,1083.56 1560,1136.5C 1560.42,1137.96 1561.26,1138.46 1562.5,1138C 1564.7,1135.77 1566.53,1133.27 1568,1130.5C 1592.08,1047.51 1614.58,964.174 1635.5,880.5C 1658.85,864.141 1682.18,847.808 1705.5,831.5C 1730.74,831.172 1755.91,831.505 1781,832.5C 1818.33,933.167 1855.67,1033.83 1893,1134.5C 1898.12,1148.6 1907.29,1159.1 1920.5,1166C 1855.17,1166.67 1789.83,1166.67 1724.5,1166C 1734.85,1157.44 1742.35,1146.94 1747,1134.5C 1746.85,1119.57 1743.69,1105.24 1737.5,1091.5C 1700.17,1090.5 1662.84,1090.17 1625.5,1090.5C 1623.32,1103.22 1620.82,1115.88 1618,1128.5C 1617.02,1135.91 1618.36,1142.91 1622,1149.5C 1625.6,1155.04 1629.43,1160.37 1633.5,1165.5C 1613,1166.17 1592.33,1166.83 1571.5,1167.5C 1571.62,1168.11 1571.96,1168.44 1572.5,1168.5C 1593.3,1224.08 1606.8,1281.41 1613,1340.5C 1616.68,1379.7 1611.68,1417.7 1598,1454.5C 1581.94,1492.61 1553.44,1514.44 1512.5,1520C 1482.14,1523.3 1452.14,1521.3 1422.5,1514C 1390.01,1506.62 1358.35,1496.62 1327.5,1484C 1323.44,1482.05 1321.94,1478.89 1323,1474.5C 1369.91,1497.1 1419.41,1509.1 1471.5,1510.5C 1496.02,1511.88 1519.36,1507.38 1541.5,1497C 1560.52,1483.49 1574.68,1465.99 1584,1444.5C 1595.86,1415.03 1601.36,1384.36 1600.5,1352.5C 1598.59,1308.52 1591.09,1265.52 1578,1223.5C 1571.99,1204.62 1565.49,1185.96 1558.5,1167.5C 1549.17,1166.83 1539.83,1166.17 1530.5,1165.5C 1536.95,1160.76 1543.28,1155.76 1549.5,1150.5C 1550.61,1149.28 1550.78,1147.94 1550,1146.5C 1527.37,1092.91 1500.87,1041.58 1470.5,992.5C 1465.01,982.196 1459.01,972.196 1452.5,962.5C 1435.39,934.597 1417.06,907.597 1397.5,881.5C 1397.39,880.883 1397.06,880.383 1396.5,880C 1374.05,873.697 1351.71,874.031 1329.5,881C 1320.85,883.99 1314.35,889.49 1310,897.5C 1309.23,902.252 1309.39,906.919 1310.5,911.5C 1314.93,921.761 1322.26,929.261 1332.5,934C 1354.68,942.726 1377.01,951.06 1399.5,959C 1410.81,963.986 1421.81,969.486 1432.5,975.5C 1393.17,1000.16 1353.84,1024.83 1314.5,1049.5C 1288.07,1042.28 1263.74,1030.78 1241.5,1015C 1219.5,996.173 1207.84,972.34 1206.5,943.5C 1206.99,894.343 1229.65,859.843 1274.5,840C 1281.05,837.595 1287.71,835.595 1294.5,834C 1316.83,832.568 1339.17,832.068 1361.5,832.5C 1349.72,817.248 1337.72,802.248 1325.5,787.5C 1245.84,687.996 1154.51,601.163 1051.5,527C 1007.89,496.185 961.219,470.518 911.5,450C 878.724,436.878 844.724,429.712 809.5,428.5C 754.782,428.588 716.615,453.588 695,503.5C 681.827,543.235 678.161,583.901 684,625.5C 691.964,684.357 706.964,741.357 729,796.5C 751.668,854.167 778.834,909.5 810.5,962.5C 803.926,965.803 796.926,968.136 789.5,969.5C 755.544,909.25 726.71,846.584 703,781.5C 682.395,725.874 669.061,668.541 663,609.5C 658.396,568.668 663.063,529.001 677,490.5C 691.011,455.821 715.511,431.988 750.5,419C 781.7,409.519 813.366,407.853 845.5,414C 880.112,420.648 913.445,431.315 945.5,446C 1003.66,473.891 1057.99,507.558 1108.5,547C 1195.62,616.291 1274.29,694.124 1344.5,780.5 Z"/></g>
<g><path style="opacity:1" fill="#0b3d91" d="M 1325.5,787.5 C 1231.88,823.931 1137.21,857.597 1041.5,888.5C 1034.52,869.859 1027.52,851.192 1020.5,832.5C 962.836,831.333 905.17,831.167 847.5,832C 858.632,841.79 867.465,853.29 874,866.5C 874.859,869.948 875.359,873.448 875.5,877C 871.038,899.683 865.705,922.183 859.5,944.5C 859.058,945.739 858.391,946.739 857.5,947.5C 841.906,952.698 826.239,957.698 810.5,962.5C 778.834,909.5 751.668,854.167 729,796.5C 706.964,741.357 691.964,684.357 684,625.5C 678.161,583.901 681.827,543.235 695,503.5C 716.615,453.588 754.782,428.588 809.5,428.5C 844.724,429.712 878.724,436.878 911.5,450C 961.219,470.518 1007.89,496.185 1051.5,527C 1154.51,601.163 1245.84,687.996 1325.5,787.5 Z"/></g>
<g><path style="opacity:1" fill="#f7f8fb" d="M 1294.5,464.5 C 1304.99,463.487 1309.49,468.154 1308,478.5C 1302.41,485.987 1296.41,486.32 1290,479.5C 1287.45,473.273 1288.95,468.273 1294.5,464.5 Z"/></g>
<g><path style="opacity:1" fill="#f2f4f9" d="M 873.5,517.5 C 874.222,517.918 874.722,518.584 875,519.5C 875.636,525.531 876.47,531.531 877.5,537.5C 882.35,538.677 885.017,541.677 885.5,546.5C 913.433,547.181 913.433,548.514 885.5,550.5C 884.933,555.568 882.1,558.568 877,559.5C 876.83,565.528 876.33,571.528 875.5,577.5C 874.739,571.454 873.739,565.454 872.5,559.5C 868.833,557.833 866.167,555.167 864.5,551.5C 857.5,550.667 850.5,549.833 843.5,549C 850.445,547.77 857.445,547.27 864.5,547.5C 865.271,542.721 867.938,539.388 872.5,537.5C 873.497,530.866 873.83,524.2 873.5,517.5 Z"/></g>
<g><path style="opacity:1" fill="#f6f8fb" d="M 779.5,525.5 C 787.775,524.706 790.942,528.373 789,536.5C 784.667,541.833 780.333,541.833 776,536.5C 774.663,531.872 775.83,528.205 779.5,525.5 Z"/></g>
<g><path style="opacity:1" fill="#f7f8fb" d="M 810.5,564.5 C 821.818,564.081 824.485,568.581 818.5,578C 814.334,580.251 810.834,579.417 808,575.5C 806.812,571.259 807.645,567.592 810.5,564.5 Z"/></g>
<g><path style="opacity:0.999" fill="#0b3d91" d="M 1936.5,649.5 C 2016.82,844.155 2029.32,1043.16 1974,1246.5C 1914.51,1446.56 1800.68,1607.73 1632.5,1730C 1441.55,1862.35 1230.22,1915.01 998.5,1888C 817.159,1863.3 658.159,1791.13 521.5,1671.5C 588.235,1612.93 656.901,1556.76 727.5,1503C 822.92,1430.13 920.253,1359.96 1019.5,1292.5C 1039.93,1324.12 1064.27,1352.62 1092.5,1378C 1101.86,1385.18 1112.19,1390.51 1123.5,1394C 1144.7,1397.46 1154.2,1388.63 1152,1367.5C 1148.99,1359.66 1144.16,1353.16 1137.5,1348C 1113.88,1330.05 1090.55,1311.71 1067.5,1293C 1060.3,1286.63 1053.3,1280.13 1046.5,1273.5C 1101.68,1235.41 1157.34,1198.08 1213.5,1161.5C 1213.33,1172.51 1213.5,1183.51 1214,1194.5C 1222.15,1179.35 1234.32,1168.85 1250.5,1163C 1252.83,1162.33 1255.17,1162.33 1257.5,1163C 1279.2,1172.21 1301.87,1177.21 1325.5,1178C 1387.31,1184.51 1439.81,1165.68 1483,1121.5C 1504.49,1096.52 1508.49,1068.86 1495,1038.5C 1486.97,1022.96 1476.47,1009.3 1463.5,997.5C 1466.14,996.189 1468.47,994.522 1470.5,992.5C 1500.87,1041.58 1527.37,1092.91 1550,1146.5C 1550.78,1147.94 1550.61,1149.28 1549.5,1150.5C 1543.28,1155.76 1536.95,1160.76 1530.5,1165.5C 1529.71,1165.78 1529.04,1166.28 1528.5,1167C 1538.49,1167.5 1548.49,1167.67 1558.5,1167.5C 1565.49,1185.96 1571.99,1204.62 1578,1223.5C 1591.09,1265.52 1598.59,1308.52 1600.5,1352.5C 1601.36,1384.36 1595.86,1415.03 1584,1444.5C 1574.68,1465.99 1560.52,1483.49 1541.5,1497C 1519.36,1507.38 1496.02,1511.88 1471.5,1510.5C 1419.41,1509.1 1369.91,1497.1 1323,1474.5C 1321.94,1478.89 1323.44,1482.05 1327.5,1484C 1358.35,1496.62 1390.01,1506.62 1422.5,1514C 1452.14,1521.3 1482.14,1523.3 1512.5,1520C 1553.44,1514.44 1581.94,1492.61 1598,1454.5C 1611.68,1417.7 1616.68,1379.7 1613,1340.5C 1606.8,1281.41 1593.3,1224.08 1572.5,1168.5C 1593.33,1167.67 1614.33,1167.17 1635.5,1167C 1634.96,1166.28 1634.29,1165.78 1633.5,1165.5C 1629.43,1160.37 1625.6,1155.04 1622,1149.5C 1618.36,1142.91 1617.02,1135.91 1618,1128.5C 1620.82,1115.88 1623.32,1103.22 1625.5,1090.5C 1662.84,1090.17 1700.17,1090.5 1737.5,1091.5C 1743.69,1105.24 1746.85,1119.57 1747,1134.5C 1742.35,1146.94 1734.85,1157.44 1724.5,1166C 1789.83,1166.67 1855.17,1166.67 1920.5,1166C 1907.29,1159.1 1898.12,1148.6 1893,1134.5C 1855.67,1033.83 1818.33,933.167 1781,832.5C 1755.91,831.505 1730.74,831.172 1705.5,831.5C 1783.48,776.05 1858.48,716.55 1930.5,653C 1932.4,651.579 1934.4,650.412 1936.5,649.5 Z"/></g>
<g><path style="opacity:1" fill="#113d90" d="M 1635.5,831.5 C 1626.16,831.334 1616.83,831.5 1607.5,832C 1611.37,836.037 1615.37,839.87 1619.5,843.5C 1569.36,880.966 1518.36,917.299 1466.5,952.5C 1453.23,931.475 1439.56,910.642 1425.5,890C 1440.19,895.263 1453.69,902.763 1466,912.5C 1466.5,893.836 1466.67,875.17 1466.5,856.5C 1504.75,841.357 1542.75,825.524 1580.5,809C 1673.13,768.204 1761.46,720.537 1845.5,666C 1777.83,724.309 1707.83,779.475 1635.5,831.5 Z"/></g>
<g><path style="opacity:1" fill="#fb3d21" d="M 1325.5,787.5 C 1337.72,802.248 1349.72,817.248 1361.5,832.5C 1339.17,832.068 1316.83,832.568 1294.5,834C 1287.71,835.595 1281.05,837.595 1274.5,840C 1229.65,859.843 1206.99,894.343 1206.5,943.5C 1162.93,956.351 1118.93,968.017 1074.5,978.5C 1063.89,948.342 1052.89,918.342 1041.5,888.5C 1137.21,857.597 1231.88,823.931 1325.5,787.5 Z"/></g>
<g><path style="opacity:1" fill="#dde4ef" d="M 504.5,832.5 C 455.33,832.168 406.33,832.501 357.5,833.5C 356.711,833.217 356.044,832.717 355.5,832C 405.335,831.168 455.002,831.335 504.5,832.5 Z"/></g>
<g><path style="opacity:1" fill="#fefefe" d="M 674.5,1010.5 C 674.169,1034.01 674.502,1057.34 675.5,1080.5C 675.043,1097.57 675.543,1114.57 677,1131.5C 684.269,1145.11 694.103,1156.61 706.5,1166C 658.5,1166.67 610.5,1166.67 562.5,1166C 553.184,1149.85 543.518,1134.02 533.5,1118.5C 525.334,1103.5 516.667,1088.83 507.5,1074.5C 483.833,1034.5 460.167,994.5 436.5,954.5C 436.217,953.711 435.717,953.044 435,952.5C 434.168,1003.33 434.335,1054 435.5,1104.5C 435.334,1112.17 435.5,1119.84 436,1127.5C 438.238,1134.32 441.738,1140.32 446.5,1145.5C 452.194,1153.19 458.861,1159.86 466.5,1165.5C 439.005,1166.5 411.338,1166.83 383.5,1166.5C 375.981,1166.82 368.648,1166.49 361.5,1165.5C 377.093,1156.23 386.093,1142.9 388.5,1125.5C 389.828,1083.71 390.495,1041.71 390.5,999.5C 390.333,957.833 390.167,916.167 390,874.5C 388.885,870.271 387.219,866.271 385,862.5C 377.345,851.346 368.178,841.68 357.5,833.5C 406.33,832.501 455.33,832.168 504.5,832.5C 543.833,898.5 583.167,964.5 622.5,1030.5C 624.72,1035.27 627.22,1039.94 630,1044.5C 630.499,1038.84 630.666,1033.18 630.5,1027.5C 630.667,976.166 630.5,924.832 630,873.5C 624.067,856.229 613.567,842.396 598.5,832C 632.5,831.333 666.5,831.333 700.5,832C 687.566,843.02 679.066,856.853 675,873.5C 674.5,919.165 674.333,964.832 674.5,1010.5 Z"/></g>
<g><path style="opacity:1" fill="#fefefe" d="M 1041.5,888.5 C 1052.89,918.342 1063.89,948.342 1074.5,978.5C 1094.76,1032.1 1114.92,1085.77 1135,1139.5C 1138.89,1146.88 1143.72,1153.55 1149.5,1159.5C 1146,1162.08 1142.34,1164.42 1138.5,1166.5C 1080.5,1166.67 1022.5,1166.5 964.5,1166C 974.785,1157.4 982.285,1146.9 987,1134.5C 987.596,1129.12 987.262,1123.79 986,1118.5C 983.702,1108.77 980.536,1099.44 976.5,1090.5C 949.33,1089.17 921.997,1089.17 894.5,1090.5C 894.624,1091.11 894.957,1091.44 895.5,1091.5C 935.314,1144.32 976.647,1195.99 1019.5,1246.5C 1012.72,1252.27 1005.39,1257.27 997.5,1261.5C 992.343,1253.86 987.177,1246.2 982,1238.5C 941.044,1190.89 902.378,1141.55 866,1090.5C 862.335,1104.66 859.501,1118.99 857.5,1133.5C 857.944,1138.33 859.11,1143 861,1147.5C 864.93,1153.7 869.097,1159.7 873.5,1165.5C 839.167,1166.83 804.833,1166.83 770.5,1165.5C 782.36,1156.82 793.527,1147.15 804,1136.5C 805.333,1134.5 806.667,1132.5 808,1130.5C 816.811,1100.57 825.311,1070.57 833.5,1040.5C 841.832,1009.85 850.165,979.18 858.5,948.5C 858.376,947.893 858.043,947.56 857.5,947.5C 858.391,946.739 859.058,945.739 859.5,944.5C 865.705,922.183 871.038,899.683 875.5,877C 875.359,873.448 874.859,869.948 874,866.5C 867.465,853.29 858.632,841.79 847.5,832C 905.17,831.167 962.836,831.333 1020.5,832.5C 1027.52,851.192 1034.52,869.859 1041.5,888.5 Z"/></g>
<g><path style="opacity:1" fill="#f5f4f7" d="M 1635.5,831.5 C 1630.47,835.853 1625.14,839.853 1619.5,843.5C 1615.37,839.87 1611.37,836.037 1607.5,832C 1616.83,831.5 1626.16,831.334 1635.5,831.5 Z"/></g>
<g><path style="opacity:1" fill="#fb3f24" d="M 1397.5,881.5 C 1369.01,892.664 1340.01,902.664 1310.5,911.5C 1309.39,906.919 1309.23,902.252 1310,897.5C 1314.35,889.49 1320.85,883.99 1329.5,881C 1351.71,874.031 1374.05,873.697 1396.5,880C 1397.06,880.383 1397.39,880.883 1397.5,881.5 Z"/></g>
<g><path style="opacity:1" fill="#103d91" d="M 1397.5,881.5 C 1417.06,907.597 1435.39,934.597 1452.5,962.5C 1445.83,966.833 1439.17,971.167 1432.5,975.5C 1421.81,969.486 1410.81,963.986 1399.5,959C 1377.01,951.06 1354.68,942.726 1332.5,934C 1322.26,929.261 1314.93,921.761 1310.5,911.5C 1340.01,902.664 1369.01,892.664 1397.5,881.5 Z"/></g>
<g><path style="opacity:1" fill="#0d3d91" d="M 1635.5,880.5 C 1614.58,964.174 1592.08,1047.51 1568,1130.5C 1566.53,1133.27 1564.7,1135.77 1562.5,1138C 1561.26,1138.46 1560.42,1137.96 1560,1136.5C 1538.53,1083.56 1513.36,1032.56 1484.5,983.5C 1535.11,949.558 1585.44,915.224 1635.5,880.5 Z"/></g>
<g><path style="opacity:1" fill="#32559f" d="M 914.5,928.5 C 913.833,928.5 913.167,928.5 912.5,928.5C 913.167,925.833 913.833,925.833 914.5,928.5 Z"/></g>
<g><path style="opacity:1" fill="#0f3e91" d="M 1721.5,1044.5 C 1693.52,1046.49 1665.19,1047.16 1636.5,1046.5C 1648.21,1006.31 1660.55,966.307 1673.5,926.5C 1690.05,965.598 1706.05,1004.93 1721.5,1044.5 Z"/></g>
<g><path style="opacity:1" fill="#fb3f23" d="M 912.5,928.5 C 913.167,928.5 913.833,928.5 914.5,928.5C 925.815,956.096 937.148,983.762 948.5,1011.5C 926.5,1016.83 904.5,1022.17 882.5,1027.5C 892.037,994.353 902.037,961.353 912.5,928.5 Z"/></g>
<g><path style="opacity:1" fill="#0e3d90" d="M 1206.5,943.5 C 1207.84,972.34 1219.5,996.173 1241.5,1015C 1263.74,1030.78 1288.07,1042.28 1314.5,1049.5C 1289.04,1066.74 1263.38,1083.74 1237.5,1100.5C 1229.26,1095.26 1221.59,1089.26 1214.5,1082.5C 1214.44,1081.96 1214.11,1081.62 1213.5,1081.5C 1212.5,1093.15 1212.17,1104.81 1212.5,1116.5C 1191.71,1131.07 1170.71,1145.4 1149.5,1159.5C 1143.72,1153.55 1138.89,1146.88 1135,1139.5C 1114.92,1085.77 1094.76,1032.1 1074.5,978.5C 1118.93,968.017 1162.93,956.351 1206.5,943.5 Z"/></g>
<g><path style="opacity:1" fill="#fb3d21" d="M 857.5,947.5 C 858.043,947.56 858.376,947.893 858.5,948.5C 850.165,979.18 841.832,1009.85 833.5,1040.5C 781.136,1053.34 728.802,1066.34 676.5,1079.5C 675.502,1056.67 675.169,1033.67 675.5,1010.5C 713.562,996.793 751.562,983.126 789.5,969.5C 796.926,968.136 803.926,965.803 810.5,962.5C 826.239,957.698 841.906,952.698 857.5,947.5 Z"/></g>
<g><path style="opacity:1" fill="#afbfda" d="M 436.5,954.5 C 435.501,1004.33 435.168,1054.33 435.5,1104.5C 434.335,1054 434.168,1003.33 435,952.5C 435.717,953.044 436.217,953.711 436.5,954.5 Z"/></g>
<g><path style="opacity:1" fill="#0e3d91" d="M 436.5,954.5 C 460.167,994.5 483.833,1034.5 507.5,1074.5C 483.504,1084.5 459.504,1094.5 435.5,1104.5C 435.168,1054.33 435.501,1004.33 436.5,954.5 Z"/></g>
<g><path style="opacity:0.997" fill="#fb3d21" d="M 1452.5,962.5 C 1459.01,972.196 1465.01,982.196 1470.5,992.5C 1468.47,994.522 1466.14,996.189 1463.5,997.5C 1428.8,1020.51 1394.13,1043.51 1359.5,1066.5C 1331.5,1084.5 1303.5,1102.5 1275.5,1120.5C 1254.45,1133.68 1233.79,1147.35 1213.5,1161.5C 1157.34,1198.08 1101.68,1235.41 1046.5,1273.5C 1037.29,1279.6 1028.29,1285.93 1019.5,1292.5C 920.253,1359.96 822.92,1430.13 727.5,1503C 656.901,1556.76 588.235,1612.93 521.5,1671.5C 466.223,1719.44 411.223,1767.77 356.5,1816.5C 356.622,1806.3 357.456,1795.97 359,1785.5C 406.37,1741.29 453.87,1697.29 501.5,1653.5C 551.629,1608.54 601.629,1563.37 651.5,1518C 687.873,1486.62 724.54,1455.62 761.5,1425C 774.167,1415.67 786.833,1406.33 799.5,1397C 865.74,1352.06 931.74,1306.89 997.5,1261.5C 1005.39,1257.27 1012.72,1252.27 1019.5,1246.5C 1059.35,1220.08 1099.01,1193.41 1138.5,1166.5C 1142.34,1164.42 1146,1162.08 1149.5,1159.5C 1170.71,1145.4 1191.71,1131.07 1212.5,1116.5C 1212.83,1116.5 1213.17,1116.5 1213.5,1116.5C 1221.79,1111.53 1229.79,1106.19 1237.5,1100.5C 1263.38,1083.74 1289.04,1066.74 1314.5,1049.5C 1353.84,1024.83 1393.17,1000.16 1432.5,975.5C 1439.17,971.167 1445.83,966.833 1452.5,962.5 Z"/></g>
<g><path style="opacity:1" fill="#fdfdfe" d="M 1463.5,997.5 C 1476.47,1009.3 1486.97,1022.96 1495,1038.5C 1508.49,1068.86 1504.49,1096.52 1483,1121.5C 1439.81,1165.68 1387.31,1184.51 1325.5,1178C 1301.87,1177.21 1279.2,1172.21 1257.5,1163C 1255.17,1162.33 1252.83,1162.33 1250.5,1163C 1234.32,1168.85 1222.15,1179.35 1214,1194.5C 1213.5,1183.51 1213.33,1172.51 1213.5,1161.5C 1233.79,1147.35 1254.45,1133.68 1275.5,1120.5C 1281.71,1123.74 1288.38,1125.9 1295.5,1127C 1316.67,1129.62 1337.67,1128.62 1358.5,1124C 1369.55,1121.56 1379.05,1116.39 1387,1108.5C 1391.15,1102 1391.48,1095.33 1388,1088.5C 1380.67,1078.41 1371.17,1071.08 1359.5,1066.5C 1394.13,1043.51 1428.8,1020.51 1463.5,997.5 Z"/></g>
<g><path style="opacity:1" fill="#fc9485" d="M 674.5,1010.5 C 674.833,1010.5 675.167,1010.5 675.5,1010.5C 675.169,1033.67 675.502,1056.67 676.5,1079.5C 676.5,1080.17 676.167,1080.5 675.5,1080.5C 674.502,1057.34 674.169,1034.01 674.5,1010.5 Z"/></g>
<g><path style="opacity:1" fill="#133d90" d="M 948.5,1011.5 C 953.228,1022.68 957.561,1034.02 961.5,1045.5C 933.338,1046.5 905.005,1046.83 876.5,1046.5C 877.731,1039.9 879.731,1033.57 882.5,1027.5C 904.5,1022.17 926.5,1016.83 948.5,1011.5 Z"/></g>
<g><path style="opacity:1" fill="#fb4e33" d="M 630.5,1027.5 C 630.666,1033.18 630.499,1038.84 630,1044.5C 627.22,1039.94 624.72,1035.27 622.5,1030.5C 624.89,1028.98 627.557,1027.98 630.5,1027.5 Z"/></g>
<g><path style="opacity:0.999" fill="#0c3d90" d="M 833.5,1040.5 C 825.311,1070.57 816.811,1100.57 808,1130.5C 806.667,1132.5 805.333,1134.5 804,1136.5C 793.527,1147.15 782.36,1156.82 770.5,1165.5C 769.711,1165.78 769.044,1166.28 768.5,1167C 804.167,1167.67 839.833,1167.67 875.5,1167C 874.956,1166.28 874.289,1165.78 873.5,1165.5C 869.097,1159.7 864.93,1153.7 861,1147.5C 859.11,1143 857.944,1138.33 857.5,1133.5C 859.501,1118.99 862.335,1104.66 866,1090.5C 902.378,1141.55 941.044,1190.89 982,1238.5C 987.177,1246.2 992.343,1253.86 997.5,1261.5C 931.74,1306.89 865.74,1352.06 799.5,1397C 786.833,1406.33 774.167,1415.67 761.5,1425C 724.54,1455.62 687.873,1486.62 651.5,1518C 601.629,1563.37 551.629,1608.54 501.5,1653.5C 376.417,1534.76 291.75,1391.43 247.5,1223.5C 248.749,1221.86 250.416,1220.7 252.5,1220C 294.686,1201.07 337.353,1183.57 380.5,1167.5C 381.5,1167.5 382.5,1167.5 383.5,1167.5C 411.835,1167.67 440.169,1167.5 468.5,1167C 467.956,1166.28 467.289,1165.78 466.5,1165.5C 458.861,1159.86 452.194,1153.19 446.5,1145.5C 475.576,1136.7 504.576,1127.7 533.5,1118.5C 543.518,1134.02 553.184,1149.85 562.5,1166C 610.5,1166.67 658.5,1166.67 706.5,1166C 694.103,1156.61 684.269,1145.11 677,1131.5C 675.543,1114.57 675.043,1097.57 675.5,1080.5C 676.167,1080.5 676.5,1080.17 676.5,1079.5C 728.802,1066.34 781.136,1053.34 833.5,1040.5 Z"/></g>
<g><path style="opacity:1" fill="#3c64a7" d="M 961.5,1045.5 C 962.043,1045.56 962.376,1045.89 962.5,1046.5C 933.669,1047.83 905.003,1047.83 876.5,1046.5C 905.005,1046.83 933.338,1046.5 961.5,1045.5 Z"/></g>
<g><path style="opacity:1" fill="#3c64a7" d="M 1721.5,1044.5 C 1722.4,1045.21 1722.74,1046.21 1722.5,1047.5C 1693.66,1047.83 1665,1047.5 1636.5,1046.5C 1665.19,1047.16 1693.52,1046.49 1721.5,1044.5 Z"/></g>
<g><path style="opacity:1" fill="#103d91" d="M 1359.5,1066.5 C 1371.17,1071.08 1380.67,1078.41 1388,1088.5C 1391.48,1095.33 1391.15,1102 1387,1108.5C 1379.05,1116.39 1369.55,1121.56 1358.5,1124C 1337.67,1128.62 1316.67,1129.62 1295.5,1127C 1288.38,1125.9 1281.71,1123.74 1275.5,1120.5C 1303.5,1102.5 1331.5,1084.5 1359.5,1066.5 Z"/></g>
<g><path style="opacity:1" fill="#fb3d21" d="M 507.5,1074.5 C 516.667,1088.83 525.334,1103.5 533.5,1118.5C 504.576,1127.7 475.576,1136.7 446.5,1145.5C 441.738,1140.32 438.238,1134.32 436,1127.5C 435.5,1119.84 435.334,1112.17 435.5,1104.5C 459.504,1094.5 483.504,1084.5 507.5,1074.5 Z"/></g>
<g><path style="opacity:1" fill="#3f66a8" d="M 1214.5,1082.5 C 1213.51,1093.65 1213.17,1104.99 1213.5,1116.5C 1213.17,1116.5 1212.83,1116.5 1212.5,1116.5C 1212.17,1104.81 1212.5,1093.15 1213.5,1081.5C 1214.11,1081.62 1214.44,1081.96 1214.5,1082.5 Z"/></g>
<g><path style="opacity:1" fill="#f9f8f9" d="M 1214.5,1082.5 C 1221.59,1089.26 1229.26,1095.26 1237.5,1100.5C 1229.79,1106.19 1221.79,1111.53 1213.5,1116.5C 1213.17,1104.99 1213.51,1093.65 1214.5,1082.5 Z"/></g>
<g><path style="opacity:1" fill="#8ca3cb" d="M 976.5,1090.5 C 949.328,1090.17 922.328,1090.5 895.5,1091.5C 894.957,1091.44 894.624,1091.11 894.5,1090.5C 921.997,1089.17 949.33,1089.17 976.5,1090.5 Z"/></g>
<g><path style="opacity:1" fill="#0e3d91" d="M 976.5,1090.5 C 980.536,1099.44 983.702,1108.77 986,1118.5C 987.262,1123.79 987.596,1129.12 987,1134.5C 982.285,1146.9 974.785,1157.4 964.5,1166C 1022.5,1166.5 1080.5,1166.67 1138.5,1166.5C 1099.01,1193.41 1059.35,1220.08 1019.5,1246.5C 976.647,1195.99 935.314,1144.32 895.5,1091.5C 922.328,1090.5 949.328,1090.17 976.5,1090.5 Z"/></g>
<g><path style="opacity:0.986" fill="#fb3d21" d="M 388.5,1125.5 C 386.093,1142.9 377.093,1156.23 361.5,1165.5C 360.711,1165.78 360.044,1166.28 359.5,1167C 366.492,1167.5 373.492,1167.67 380.5,1167.5C 337.353,1183.57 294.686,1201.07 252.5,1220C 250.416,1220.7 248.749,1221.86 247.5,1223.5C 205.33,1242.58 164.33,1263.75 124.5,1287C 123.167,1287.67 121.833,1287.67 120.5,1287C 112.927,1284.31 105.593,1281.14 98.5,1277.5C 144.226,1247.63 191.56,1220.3 240.5,1195.5C 289.349,1171.07 338.683,1147.74 388.5,1125.5 Z"/></g>
<g><path style="opacity:1" fill="#fdbdb4" d="M 361.5,1165.5 C 368.648,1166.49 375.981,1166.82 383.5,1166.5C 383.5,1166.83 383.5,1167.17 383.5,1167.5C 382.5,1167.5 381.5,1167.5 380.5,1167.5C 373.492,1167.67 366.492,1167.5 359.5,1167C 360.044,1166.28 360.711,1165.78 361.5,1165.5 Z"/></g>
<g><path style="opacity:1" fill="#adbdd9" d="M 466.5,1165.5 C 467.289,1165.78 467.956,1166.28 468.5,1167C 440.169,1167.5 411.835,1167.67 383.5,1167.5C 383.5,1167.17 383.5,1166.83 383.5,1166.5C 411.338,1166.83 439.005,1166.5 466.5,1165.5 Z"/></g>
<g><path style="opacity:1" fill="#adbdd9" d="M 770.5,1165.5 C 804.833,1166.83 839.167,1166.83 873.5,1165.5C 874.289,1165.78 874.956,1166.28 875.5,1167C 839.833,1167.67 804.167,1167.67 768.5,1167C 769.044,1166.28 769.711,1165.78 770.5,1165.5 Z"/></g>
<g><path style="opacity:1" fill="#aebeda" d="M 1530.5,1165.5 C 1539.83,1166.17 1549.17,1166.83 1558.5,1167.5C 1548.49,1167.67 1538.49,1167.5 1528.5,1167C 1529.04,1166.28 1529.71,1165.78 1530.5,1165.5 Z"/></g>
<g><path style="opacity:1" fill="#adbdd9" d="M 1633.5,1165.5 C 1634.29,1165.78 1634.96,1166.28 1635.5,1167C 1614.33,1167.17 1593.33,1167.67 1572.5,1168.5C 1571.96,1168.44 1571.62,1168.11 1571.5,1167.5C 1592.33,1166.83 1613,1166.17 1633.5,1165.5 Z"/></g>
<g><path style="opacity:1" fill="#f4f6fa" d="M 791.5,1184.5 C 798.319,1184.48 801.486,1187.82 801,1194.5C 798.774,1198.86 795.274,1200.36 790.5,1199C 786.788,1196.49 785.622,1192.99 787,1188.5C 788.397,1186.93 789.897,1185.6 791.5,1184.5 Z"/></g>
<g><path style="opacity:1" fill="#f4f6fa" d="M 1690.5,1236.5 C 1694.66,1236.14 1697.83,1237.81 1700,1241.5C 1700.62,1249.21 1697.12,1252.38 1689.5,1251C 1685.79,1248.49 1684.62,1244.99 1686,1240.5C 1687.4,1238.93 1688.9,1237.6 1690.5,1236.5 Z"/></g>
<g><path style="opacity:1" fill="#eef1f7" d="M 1805.5,1246.5 C 1807.01,1254.28 1807.68,1262.28 1807.5,1270.5C 1813.17,1271.5 1816.5,1274.83 1817.5,1280.5C 1825.17,1280.33 1832.84,1280.5 1840.5,1281C 1833.53,1282.08 1826.53,1282.91 1819.5,1283.5C 1817.3,1286.01 1814.97,1288.51 1812.5,1291C 1811.5,1291.33 1810.5,1291.67 1809.5,1292C 1808.74,1298.79 1807.91,1305.62 1807,1312.5C 1806.05,1305.86 1805.55,1299.2 1805.5,1292.5C 1800.52,1291.7 1797.19,1288.86 1795.5,1284C 1768.96,1283.47 1768.96,1281.97 1795.5,1279.5C 1796.8,1275.03 1799.63,1272.03 1804,1270.5C 1804.5,1262.49 1805,1254.49 1805.5,1246.5 Z"/></g>
<g><path style="opacity:1" fill="#fdfdfe" d="M 1046.5,1273.5 C 1053.3,1280.13 1060.3,1286.63 1067.5,1293C 1090.55,1311.71 1113.88,1330.05 1137.5,1348C 1144.16,1353.16 1148.99,1359.66 1152,1367.5C 1154.2,1388.63 1144.7,1397.46 1123.5,1394C 1112.19,1390.51 1101.86,1385.18 1092.5,1378C 1064.27,1352.62 1039.93,1324.12 1019.5,1292.5C 1028.29,1285.93 1037.29,1279.6 1046.5,1273.5 Z"/></g>
<g><path style="opacity:1" fill="#f7f9fb" d="M 1704.5,1279.5 C 1715.22,1280.03 1719.05,1285.37 1716,1295.5C 1710.94,1300.38 1705.61,1300.72 1700,1296.5C 1695.76,1289.27 1697.26,1283.61 1704.5,1279.5 Z"/></g>
<g><path style="opacity:1" fill="#f9fafc" d="M 1572.5,1285.5 C 1582.49,1284.33 1586.99,1288.66 1586,1298.5C 1583.18,1304.17 1578.68,1306 1572.5,1304C 1567.58,1301.26 1565.75,1297.09 1567,1291.5C 1568.36,1288.98 1570.19,1286.98 1572.5,1285.5 Z"/></g>
<g><path style="opacity:1" fill="#f7f9fb" d="M 1832.5,1334.5 C 1842.5,1334 1846.67,1338.67 1845,1348.5C 1842.26,1353.42 1838.09,1355.25 1832.5,1354C 1823.22,1347.5 1823.22,1341 1832.5,1334.5 Z"/></g>
<g><path style="opacity:1" fill="#f7f8fb" d="M 1504.5,1337.5 C 1515.76,1336.93 1518.43,1341.43 1512.5,1351C 1506.03,1353.21 1502.03,1351.04 1500.5,1344.5C 1501.07,1341.69 1502.4,1339.35 1504.5,1337.5 Z"/></g>
<g><path style="opacity:1" fill="#f7f9fb" d="M 1572.5,1349.5 C 1582.49,1348.33 1586.99,1352.66 1586,1362.5C 1580.82,1370.92 1574.82,1371.59 1568,1364.5C 1565.06,1358.06 1566.56,1353.06 1572.5,1349.5 Z"/></g>
<g><path style="opacity:1" fill="#f9fafc" d="M 1783.5,1353.5 C 1794.82,1352.99 1797.48,1357.49 1791.5,1367C 1780.11,1367.8 1777.44,1363.3 1783.5,1353.5 Z"/></g>
<g><path style="opacity:1" fill="#f7f8fb" d="M 792.5,1354.5 C 804.854,1354.56 808.687,1360.23 804,1371.5C 796.682,1376.51 791.016,1375.18 787,1367.5C 785.831,1361.85 787.665,1357.52 792.5,1354.5 Z"/></g>
<g><path style="opacity:1" fill="#f7f8fb" d="M 554.5,1399.5 C 567.727,1399.47 571.394,1405.3 565.5,1417C 554.807,1421.64 549.307,1418.14 549,1406.5C 549.967,1403.38 551.8,1401.05 554.5,1399.5 Z"/></g>
<g><path style="opacity:1" fill="#f8f9fc" d="M 458.5,1413.5 C 466.179,1414.02 469.012,1418.02 467,1425.5C 462.199,1429.75 457.866,1429.42 454,1424.5C 452.393,1419.44 453.893,1415.77 458.5,1413.5 Z"/></g>
<g><path style="opacity:1" fill="#f5f7fa" d="M 1704.5,1428.5 C 1712.16,1427.66 1715.66,1431 1715,1438.5C 1711.45,1444.21 1707.12,1444.88 1702,1440.5C 1699.7,1435.86 1700.53,1431.86 1704.5,1428.5 Z"/></g>
<g><path style="opacity:1" fill="#f5f7fa" d="M 1503.5,1438.5 C 1514.13,1438.59 1516.8,1443.09 1511.5,1452C 1502.95,1454.79 1499.11,1451.62 1500,1442.5C 1501.38,1441.29 1502.54,1439.96 1503.5,1438.5 Z"/></g>
<g><path style="opacity:1" fill="#f6f8fb" d="M 698.5,1446.5 C 708.175,1446.67 710.842,1451.17 706.5,1460C 697.319,1463.32 693.485,1460.16 695,1450.5C 695.69,1448.65 696.856,1447.32 698.5,1446.5 Z"/></g>
<g><path style="opacity:1" fill="#f1f3f8" d="M 1746.5,1476.5 C 1749.83,1477.17 1753.17,1477.83 1756.5,1478.5C 1750.51,1479 1744.51,1479.5 1738.5,1480C 1737.31,1484.2 1734.64,1487.04 1730.5,1488.5C 1729.05,1495.75 1728.22,1503.09 1728,1510.5C 1727.17,1503.16 1726.33,1495.82 1725.5,1488.5C 1721.17,1487.5 1718.5,1484.83 1717.5,1480.5C 1709.16,1480.19 1700.83,1479.69 1692.5,1479C 1700,1478.03 1707.5,1477.2 1715,1476.5C 1716.82,1474.2 1718.66,1471.86 1720.5,1469.5C 1721.85,1468.05 1723.52,1467.38 1725.5,1467.5C 1725.27,1460.45 1725.77,1453.45 1727,1446.5C 1727.89,1453.14 1728.55,1459.81 1729,1466.5C 1734.42,1467.77 1737.59,1471.11 1738.5,1476.5C 1741.17,1476.5 1743.83,1476.5 1746.5,1476.5 Z"/></g>
<g><path style="opacity:1" fill="#f6f8fb" d="M 542.5,1452.5 C 553.132,1452.59 555.799,1457.09 550.5,1466C 541.945,1468.79 538.112,1465.62 539,1456.5C 540.376,1455.29 541.542,1453.96 542.5,1452.5 Z"/></g>
<g><path style="opacity:1" fill="#f4f6fa" d="M 1774.5,1471.5 C 1781.69,1471.85 1784.52,1475.51 1783,1482.5C 1780.49,1486.21 1776.99,1487.38 1772.5,1486C 1766.75,1480.26 1767.42,1475.43 1774.5,1471.5 Z"/></g>
<g><path style="opacity:1" fill="#7e97c4" d="M 1746.5,1476.5 C 1751.3,1476.12 1755.96,1476.62 1760.5,1478C 1759.21,1478.49 1757.87,1478.66 1756.5,1478.5C 1753.17,1477.83 1749.83,1477.17 1746.5,1476.5 Z"/></g>
<g><path style="opacity:1" fill="#f7f9fb" d="M 580.5,1479.5 C 593.74,1479.49 597.407,1485.33 591.5,1497C 584.415,1501.29 578.915,1499.79 575,1492.5C 574.333,1490.5 574.333,1488.5 575,1486.5C 576.666,1484 578.5,1481.67 580.5,1479.5 Z"/></g>
<g><path style="opacity:1" fill="#f8f9fb" d="M 852.5,1481.5 C 865.329,1481.17 869.163,1486.83 864,1498.5C 856.876,1503.37 851.209,1502.03 847,1494.5C 846.114,1488.95 847.947,1484.61 852.5,1481.5 Z"/></g>
<g><path style="opacity:1" fill="#f4f6fa" d="M 1242.5,1485.5 C 1249.32,1485.48 1252.49,1488.82 1252,1495.5C 1249.77,1499.86 1246.27,1501.36 1241.5,1500C 1237.79,1497.49 1236.62,1493.99 1238,1489.5C 1239.4,1487.93 1240.9,1486.6 1242.5,1485.5 Z"/></g>
<g><path style="opacity:1" fill="#f4f6fa" d="M 1065.5,1549.5 C 1073.77,1548.71 1076.94,1552.37 1075,1560.5C 1069.84,1566.06 1065.17,1565.73 1061,1559.5C 1060.08,1555.02 1061.58,1551.68 1065.5,1549.5 Z"/></g>
<g><path style="opacity:1" fill="#f7f8fb" d="M 763.5,1552.5 C 773.197,1552.72 775.864,1557.22 771.5,1566C 762.319,1569.32 758.485,1566.16 760,1556.5C 760.69,1554.65 761.856,1553.32 763.5,1552.5 Z"/></g>
<g><path style="opacity:1" fill="#f5f7fa" d="M 864.5,1571.5 C 872.161,1570.66 875.661,1574 875,1581.5C 871.455,1587.21 867.121,1587.88 862,1583.5C 859.511,1578.76 860.345,1574.76 864.5,1571.5 Z"/></g>
<g><path style="opacity:1" fill="#f4f6fa" d="M 1539.5,1636.5 C 1545.38,1636.03 1549.04,1638.7 1550.5,1644.5C 1548.06,1651.55 1543.56,1653.22 1537,1649.5C 1534.46,1644.44 1535.29,1640.1 1539.5,1636.5 Z"/></g>
<g><path style="opacity:1" fill="#eff2f8" d="M 792.5,1685.5 C 791.833,1688.17 791.167,1690.83 790.5,1693.5C 790.407,1687.48 790.074,1681.48 789.5,1675.5C 785.067,1675.07 782.067,1672.74 780.5,1668.5C 779.667,1668.17 778.833,1667.83 778,1667.5C 770.524,1666.75 763.024,1666.25 755.5,1666C 763.832,1665.08 772.166,1664.24 780.5,1663.5C 780.928,1659.07 783.261,1656.07 787.5,1654.5C 788.766,1646.55 789.599,1638.55 790,1630.5C 791.583,1638.41 792.416,1646.41 792.5,1654.5C 797.876,1655.21 800.876,1658.21 801.5,1663.5C 809.547,1663.28 817.547,1663.78 825.5,1665C 817.495,1665.5 809.495,1666 801.5,1666.5C 800.833,1671.83 797.833,1674.83 792.5,1675.5C 792.5,1678.83 792.5,1682.17 792.5,1685.5 Z"/></g>
<g><path style="opacity:1" fill="#728dbf" d="M 792.5,1685.5 C 792.824,1689.55 792.491,1693.55 791.5,1697.5C 790.571,1696.31 790.238,1694.98 790.5,1693.5C 791.167,1690.83 791.833,1688.17 792.5,1685.5 Z"/></g>
</svg>
